<svg width="22" height="22" viewBox="0 0 22 22" fill="none" xmlns="http://www.w3.org/2000/svg">
<path d="M20.3077 0H1.69231C1.24348 0 0.813035 0.210714 0.495665 0.585786C0.178296 0.960859 0 1.46957 0 2V20C0 20.5304 0.178296 21.0391 0.495665 21.4142C0.813035 21.7893 1.24348 22 1.69231 22H20.3077C20.7565 22 21.187 21.7893 21.5043 21.4142C21.8217 21.0391 22 20.5304 22 20V2C22 1.46957 21.8217 0.960859 21.5043 0.585786C21.187 0.210714 20.7565 0 20.3077 0ZM19.214 5.7075L9.06019 17.7075C8.98161 17.8005 8.88829 17.8742 8.78557 17.9246C8.68284 17.9749 8.57274 18.0008 8.46154 18.0008C8.35034 18.0008 8.24023 17.9749 8.13751 17.9246C8.03479 17.8742 7.94147 17.8005 7.86288 17.7075L3.63212 12.7075C3.47334 12.5199 3.38415 12.2654 3.38415 12C3.38415 11.7346 3.47334 11.4801 3.63212 11.2925C3.79089 11.1049 4.00623 10.9994 4.23077 10.9994C4.45531 10.9994 4.67065 11.1049 4.82942 11.2925L8.46154 15.5863L18.0167 4.2925C18.1755 4.10486 18.3908 3.99944 18.6154 3.99944C18.8399 3.99944 19.0553 4.10486 19.214 4.2925C19.3728 4.48014 19.462 4.73464 19.462 5C19.462 5.26536 19.3728 5.51986 19.214 5.7075Z" fill="#545454"/>
</svg>
