<svg width="25" height="25" viewBox="0 0 25 25" fill="none" xmlns="http://www.w3.org/2000/svg">
<path d="M23.488 7.39863L6.1326 5.31271L5.07463 0.958794C5.03785 0.812766 4.95809 0.68382 4.84752 0.591642C4.73695 0.499464 4.60164 0.449118 4.46226 0.448291H1.85692C1.76276 0.310619 1.64052 0.198501 1.49979 0.120725C1.35906 0.0429493 1.20365 0.00162817 1.04576 0C0.768404 0 0.502412 0.119667 0.306295 0.332675C0.110178 0.545683 0 0.834584 0 1.13582C0 1.43706 0.110178 1.72596 0.306295 1.93897C0.502412 2.15198 0.768404 2.27165 1.04576 2.27165C1.38269 2.27165 1.6674 2.08867 1.85861 1.82153H3.97454L8.37994 19.9361C7.89939 20.4917 7.63138 21.225 7.63027 21.9873C7.62993 22.383 7.70143 22.7748 7.84065 23.1404C7.97988 23.506 8.18411 23.8383 8.44165 24.1181C8.6992 24.3979 9.00502 24.6198 9.3416 24.7711C9.67819 24.9225 10.0389 25.0002 10.4032 25C11.1393 25.0002 11.8453 24.683 12.366 24.1181C12.8868 23.5532 13.1797 22.7867 13.1804 21.9873C13.1789 21.7582 13.1526 21.53 13.1021 21.3075H17.7627C17.7128 21.5301 17.6868 21.7582 17.6852 21.9873C17.6852 23.6524 18.9285 25 20.4615 25C21.9946 25 23.2353 23.6524 23.2353 21.9873C23.2355 21.1877 22.9434 20.4208 22.423 19.8551C21.9027 19.2895 21.1969 18.9714 20.4607 18.9709C19.6605 18.9709 18.9445 19.346 18.4374 19.9343H12.4265C12.1685 19.631 11.8557 19.3889 11.5075 19.2231C11.1593 19.0573 10.7834 18.9715 10.4032 18.9709C10.0831 18.9709 9.78158 19.0423 9.49603 19.1503L9.34273 18.5227H21.6265C22.0985 18.5122 22.5537 18.3297 22.9188 18.0045C23.2839 17.6793 23.5377 17.2302 23.6396 16.7295L24.9663 9.59526C24.9887 9.47047 25 9.34363 25 9.2165C25.0006 8.76363 24.8462 8.32667 24.5668 7.99054C24.2874 7.65441 23.9029 7.44403 23.488 7.39863ZM20.4624 22.2563C20.3964 22.256 20.3331 22.2276 20.2863 22.1771C20.2395 22.1266 20.2128 22.0581 20.2122 21.9864C20.2147 21.8345 20.3259 21.7138 20.4632 21.7138C20.6005 21.7138 20.7117 21.8345 20.7134 21.9855C20.7125 22.057 20.6858 22.1253 20.639 22.1756C20.5922 22.2259 20.529 22.2542 20.4632 22.2544L20.4624 22.2563ZM21.9617 15.3993L22.7602 14.5301L22.4924 15.9756L21.9617 15.3993ZM9.78748 7.13149L10.6593 8.08113L9.57268 9.26133L8.48355 8.08113L9.39916 7.08574L9.78664 7.13149H9.78748ZM13.5763 7.5871L14.0295 8.08113L12.9429 9.26133L11.8537 8.08113L12.4332 7.44987L13.5763 7.5871ZM7.15519 9.52298L7.88802 8.72887L8.97463 9.91089L7.88802 11.0911L7.4121 10.576L7.15603 9.52207L7.15519 9.52298ZM6.9067 8.49832L6.63042 7.36387L7.29165 8.08205L6.9067 8.49832ZM17.398 11.7407L16.3113 12.9208L15.2222 11.7407L16.3105 10.5577L17.3971 11.7397L17.398 11.7407ZM16.9069 9.91089L17.9952 8.72887L19.0818 9.91089L17.9952 11.0929L16.906 9.91089H16.9069ZM14.6267 11.0911L13.5375 9.91089L14.6258 8.72795L15.7124 9.90998L14.6258 11.0902L14.6267 11.0911ZM14.0286 11.7407L12.942 12.9208L11.8537 11.7407L12.942 10.5577L14.0286 11.7407ZM11.2573 11.0911L10.1682 9.91089L11.2565 8.72795L12.3431 9.90998L11.2565 11.0902L11.2573 11.0911ZM10.6593 11.7407L9.57268 12.9208L8.48355 11.7407L9.57184 10.5577L10.6585 11.7397L10.6593 11.7407ZM7.88802 12.3875L8.97463 13.5695L8.31424 14.2858L7.85938 12.4158L7.88718 12.3856L7.88802 12.3875ZM8.56357 15.3123L9.57184 14.2172L10.6585 15.3993L9.57184 16.5794L8.62001 15.5456L8.56273 15.3114L8.56357 15.3123ZM10.1691 13.5695L11.2557 12.3866L12.3448 13.5686L11.2582 14.7488L10.1699 13.5686L10.1691 13.5695ZM12.942 14.2163L14.0303 15.3983L12.942 16.5785L11.8537 15.3983L12.942 14.2163ZM13.5384 13.5686L14.6267 12.3856L15.7133 13.5677L14.6267 14.7479L13.5384 13.5686ZM16.3097 14.2154L17.3988 15.3974L16.3122 16.5776L15.2239 15.3956L16.3105 14.2154H16.3097ZM16.9077 13.5677L17.9943 12.3847L19.0835 13.5668L17.9968 14.7469L16.9077 13.5677ZM18.5924 11.7379L19.679 10.555L20.7681 11.737L19.6815 12.9172L18.5924 11.7379ZM20.277 9.90815L21.3636 8.72521L22.4519 9.91089L21.3653 11.0929L20.2762 9.90998L20.277 9.90815ZM19.679 9.26041L18.7061 8.20281L20.4598 8.41323L19.6798 9.26041H19.679ZM17.3996 8.08113L16.313 9.26316L15.2239 8.08113L15.4682 7.81582L17.3659 8.04454L17.3996 8.08113ZM11.259 7.43157L11.131 7.29434L11.361 7.32178L11.2599 7.43157H11.259ZM7.8897 7.4334L7.34219 6.83873L8.32772 6.95766L7.8897 7.4334ZM11.259 16.047L12.274 17.1494H10.244L11.259 16.047ZM14.6284 16.047L15.6434 17.1503H13.6117L14.6275 16.047H14.6284ZM17.9977 16.047L19.0144 17.1512H16.981L17.9968 16.047H17.9977ZM18.5932 15.3993L19.6815 14.2163L20.7681 15.3983L19.6815 16.5785L18.5924 15.3983L18.5932 15.3993ZM20.2779 13.5695L21.3662 12.3875L22.4528 13.5677L21.3662 14.7506L20.277 13.5704L20.2779 13.5695ZM23.0508 12.9199L21.9625 11.7397L23.0492 10.5577L23.424 10.9639L23.0618 12.9071L23.05 12.9208L23.0508 12.9199ZM23.472 8.80297L23.0508 9.26041L22.4949 8.65934L23.3516 8.7618C23.397 8.76912 23.4358 8.78559 23.4729 8.80206L23.472 8.80297ZM10.4049 22.2554C10.3412 22.2513 10.2813 22.221 10.2375 22.1706C10.1937 22.1201 10.1692 22.0534 10.1692 21.9841C10.1692 21.9148 10.1937 21.848 10.2375 21.7976C10.2813 21.7472 10.3412 21.7169 10.4049 21.7128C10.4684 21.7169 10.5281 21.7471 10.5718 21.7973C10.6154 21.8476 10.6398 21.9141 10.6398 21.9832C10.6398 22.0523 10.6154 22.1188 10.5718 22.169C10.5281 22.2193 10.4684 22.2495 10.4049 22.2535V22.2554ZM21.6273 17.1503H20.3495L21.3662 16.0461L22.1495 16.8969C21.992 17.0524 21.7932 17.1622 21.6273 17.1503Z" fill="black"/>
</svg>
