<svg width="51" height="52" viewBox="0 0 51 52" fill="none" xmlns="http://www.w3.org/2000/svg">
<path d="M15.7299 23.5971C15.7299 22.9176 15.9927 22.266 16.4605 21.7855C16.9283 21.3051 17.5628 21.0352 18.2244 21.0352H33.1914C33.853 21.0352 34.4875 21.3051 34.9553 21.7855C35.4231 22.266 35.6859 22.9176 35.6859 23.5971C35.6859 24.2766 35.4231 24.9282 34.9553 25.4087C34.4875 25.8891 33.853 26.1591 33.1914 26.1591H18.2244C17.5628 26.1591 16.9283 25.8891 16.4605 25.4087C15.9927 24.9282 15.7299 24.2766 15.7299 23.5971ZM18.2244 31.2829C17.5628 31.2829 16.9283 31.5529 16.4605 32.0333C15.9927 32.5138 15.7299 33.1654 15.7299 33.8449C15.7299 34.5244 15.9927 35.176 16.4605 35.6565C16.9283 36.1369 17.5628 36.4068 18.2244 36.4068H28.2024C28.864 36.4068 29.4985 36.1369 29.9663 35.6565C30.4341 35.176 30.6969 34.5244 30.6969 33.8449C30.6969 33.1654 30.4341 32.5138 29.9663 32.0333C29.4985 31.5529 28.864 31.2829 28.2024 31.2829H18.2244ZM0.762838 26.1591C0.764089 20.5422 2.56258 15.0815 5.88152 10.6173C9.20047 6.153 13.8559 2.93266 19.1314 1.45185C24.4069 -0.0289662 30.01 0.311815 35.0784 2.42175C40.1468 4.53168 44.3997 8.29382 47.1824 13.1292C49.9651 17.9645 51.1235 23.6051 50.4793 29.1828C49.8351 34.7605 47.4239 39.9662 43.617 43.9988C39.81 48.0313 34.8182 50.6671 29.4098 51.5007C24.0014 52.3342 18.4761 51.3192 13.6844 48.6119L3.98574 51.6453C3.55315 51.7806 3.09287 51.7926 2.65414 51.68C2.21541 51.5675 1.81473 51.3345 1.49496 51.0061C1.1752 50.6777 0.948369 50.2662 0.838744 49.8156C0.729119 49.365 0.74082 48.8923 0.872596 48.448L3.82609 38.4718C1.8103 34.6985 0.756539 30.4629 0.762838 26.1591ZM25.7079 5.66349C22.1654 5.66319 18.6867 6.63137 15.629 8.4686C12.5713 10.3058 10.045 12.9459 8.30936 16.1176C6.57376 19.2893 5.69151 22.8783 5.75321 26.516C5.81491 30.1538 6.81834 33.709 8.66044 36.8167C8.8433 37.1255 8.96051 37.4704 9.00436 37.8289C9.04821 38.1875 9.01772 38.5515 8.91489 38.897L7.00409 45.348L13.2753 43.3856C13.6128 43.28 13.9684 43.2491 14.3184 43.295C14.6684 43.341 15.005 43.4626 15.3058 43.652C17.9359 45.3012 20.9022 46.3024 23.9721 46.5772C27.042 46.852 30.1321 46.3929 33.0004 45.2359C35.8686 44.0788 38.437 42.2553 40.5042 39.9083C42.5715 37.5612 44.0814 34.7543 44.9156 31.7077C45.7498 28.661 45.8858 25.4573 45.3127 22.3476C44.7397 19.238 43.4732 16.3069 41.6126 13.784C39.752 11.2612 37.3478 9.21515 34.5884 7.80628C31.829 6.39741 28.7895 5.66399 25.7079 5.66349Z" fill="black"/>
</svg>
