<svg width="14" height="14" viewBox="0 0 14 14" fill="none" xmlns="http://www.w3.org/2000/svg">
<path d="M5.37567 8.54294C5.03168 8.26632 4.8223 7.89042 4.8223 7.46874C4.8223 6.62394 5.66702 5.94299 6.71514 5.94299C7.23381 5.94299 7.71121 6.11215 8.04922 6.38877" stroke="#86C9F6" stroke-width="1.07684" stroke-linecap="round" stroke-linejoin="round"/>
<path d="M8.57281 7.73926C8.43402 8.36093 7.8262 8.85152 7.05507 8.96429" stroke="#86C9F6" stroke-width="1.07684" stroke-linecap="round" stroke-linejoin="round"/>
<path d="M3.51752 10.0396C2.56811 9.43912 1.76407 8.56203 1.18138 7.46856C1.77005 6.37027 2.57947 5.48836 3.53487 4.88307C4.48428 4.27778 5.57966 3.94911 6.71513 3.94911C7.85717 3.94911 8.95196 4.2826 9.90735 4.89223" stroke="#86C9F6" stroke-width="1.07684" stroke-linecap="round" stroke-linejoin="round"/>
<path d="M11.1708 5.95222C11.5824 6.3927 11.9444 6.90112 12.2489 7.46834C11.0721 9.66444 8.99264 10.9873 6.71513 10.9873C6.19885 10.9873 5.68974 10.9198 5.20038 10.7883" stroke="#86C9F6" stroke-width="1.07684" stroke-linecap="round" stroke-linejoin="round"/>
<path d="M11.4337 3.66737L1.99706 11.2691" stroke="#86C9F6" stroke-width="1.07684" stroke-linecap="round" stroke-linejoin="round"/>
</svg>
