<svg width="14" height="14" viewBox="0 0 14 14" fill="none" xmlns="http://www.w3.org/2000/svg">
<g clip-path="url(#clip0_93_196)">
<path d="M6.92428 3.78807C8.96489 3.78807 10.7847 4.9349 11.6731 6.74937C10.7847 8.56384 8.97027 9.71067 6.92428 9.71067C4.87829 9.71067 3.06382 8.56384 2.17543 6.74937C3.06382 4.9349 4.88368 3.78807 6.92428 3.78807ZM6.92428 2.71123C4.33233 2.71123 2.10473 4.26345 1.11126 6.4885C1.03714 6.6545 1.03714 6.84424 1.11126 7.01024C2.10473 9.23529 4.33233 10.7875 6.92428 10.7875C9.51623 10.7875 11.7438 9.23529 12.7373 7.01024C12.8114 6.84424 12.8114 6.6545 12.7373 6.4885C11.7438 4.26345 9.51623 2.71123 6.92428 2.71123ZM6.92428 5.40332C7.6673 5.40332 8.27033 6.00635 8.27033 6.74937C8.27033 7.49239 7.6673 8.09542 6.92428 8.09542C6.18126 8.09542 5.57824 7.49239 5.57824 6.74937C5.57824 6.00635 6.18126 5.40332 6.92428 5.40332ZM6.92428 4.32649C5.589 4.32649 4.5014 5.41409 4.5014 6.74937C4.5014 8.08465 5.589 9.17225 6.92428 9.17225C8.25956 9.17225 9.34717 8.08465 9.34717 6.74937C9.34717 5.41409 8.25956 4.32649 6.92428 4.32649Z" fill="#86C9F6"/>
</g>
<defs>
<clipPath id="clip0_93_196">
<rect width="12.922" height="12.922" fill="white" transform="translate(0.463272 0.288349)"/>
</clipPath>
</defs>
</svg>
