<svg width="20" height="20" viewBox="0 0 20 20" fill="none" xmlns="http://www.w3.org/2000/svg">
<path d="M16.5687 4.06775L15.9554 3.45446C15.7821 3.28114 15.4621 3.30781 15.2621 3.54777L13.1286 5.66774C12.1686 5.25445 11.1153 5.05445 10.0086 5.05445C6.71519 5.06773 3.86204 6.98771 2.48861 9.74788C2.40858 9.92121 2.40858 10.1345 2.48861 10.2811C3.12855 11.5878 4.08861 12.6679 5.28861 13.4811L3.54195 15.2545C3.34195 15.4545 3.31528 15.7744 3.44865 15.9478L4.06193 16.5611C4.23526 16.7344 4.55525 16.7077 4.75525 16.4678L16.4618 4.76118C16.7152 4.56129 16.7419 4.24132 16.5685 4.06798L16.5687 4.06775ZM10.7153 8.09432C10.4886 8.04097 10.2486 7.97434 10.022 7.97434C8.88859 7.97434 7.98202 8.88103 7.98202 10.0143C7.98202 10.241 8.03536 10.4809 8.10199 10.7076L7.20856 11.5876C6.94193 11.121 6.79528 10.6009 6.79528 10.0143C6.79528 8.241 8.22196 6.81432 9.99528 6.81432C10.582 6.81432 11.102 6.96097 11.5686 7.2276L10.7153 8.09432Z" fill="#1B2547" fill-opacity="0.22"/>
<path d="M17.5287 9.74784C17.0621 8.81447 16.4487 7.97452 15.6888 7.29449L13.2087 9.74784V10.0145C13.2087 11.7878 11.782 13.2145 10.0087 13.2145H9.74208L8.16876 14.7878C8.75548 14.9078 9.36877 14.9878 9.96877 14.9878C13.2622 14.9878 16.1154 13.0678 17.4888 10.2944C17.6088 10.1076 17.6088 9.92104 17.5287 9.7477L17.5287 9.74784Z" fill="#1B2547" fill-opacity="0.22"/>
</svg>
