<svg width="85" height="26" viewBox="0 0 85 26" fill="none" xmlns="http://www.w3.org/2000/svg">
<path d="M5.40526 4.84117V8.28323H0V12.4919H5.40526V25H16.5003V12.4931H23.9479C23.9479 12.4931 24.6457 10.4752 24.9839 8.2682H16.5459V5.3898C16.5459 4.96017 17.7536 4.38148 18.9506 4.38148H25V0H16.7767C5.12882 0 5.40526 4.21239 5.40526 4.84117Z" fill="white"/>
<path d="M67.25 1H77.75C81.75 1 85 4.25 85 8.25V18.75C85 20.6728 84.2362 22.5169 82.8765 23.8765C81.5169 25.2362 79.6728 26 77.75 26H67.25C63.25 26 60 22.75 60 18.75V8.25C60 6.32718 60.7638 4.48311 62.1235 3.12348C63.4831 1.76384 65.3272 1 67.25 1ZM67 3.5C65.8065 3.5 64.6619 3.97411 63.818 4.81802C62.9741 5.66193 62.5 6.80653 62.5 8V19C62.5 21.4875 64.5125 23.5 67 23.5H78C79.1935 23.5 80.3381 23.0259 81.182 22.182C82.0259 21.3381 82.5 20.1935 82.5 19V8C82.5 5.5125 80.4875 3.5 78 3.5H67ZM79.0625 5.375C79.4769 5.375 79.8743 5.53962 80.1674 5.83265C80.4604 6.12567 80.625 6.5231 80.625 6.9375C80.625 7.3519 80.4604 7.74933 80.1674 8.04235C79.8743 8.33538 79.4769 8.5 79.0625 8.5C78.6481 8.5 78.2507 8.33538 77.9576 8.04235C77.6646 7.74933 77.5 7.3519 77.5 6.9375C77.5 6.5231 77.6646 6.12567 77.9576 5.83265C78.2507 5.53962 78.6481 5.375 79.0625 5.375ZM72.5 7.25C74.1576 7.25 75.7473 7.90848 76.9194 9.08058C78.0915 10.2527 78.75 11.8424 78.75 13.5C78.75 15.1576 78.0915 16.7473 76.9194 17.9194C75.7473 19.0915 74.1576 19.75 72.5 19.75C70.8424 19.75 69.2527 19.0915 68.0806 17.9194C66.9085 16.7473 66.25 15.1576 66.25 13.5C66.25 11.8424 66.9085 10.2527 68.0806 9.08058C69.2527 7.90848 70.8424 7.25 72.5 7.25ZM72.5 9.75C71.5054 9.75 70.5516 10.1451 69.8483 10.8483C69.1451 11.5516 68.75 12.5054 68.75 13.5C68.75 14.4946 69.1451 15.4484 69.8483 16.1517C70.5516 16.8549 71.5054 17.25 72.5 17.25C73.4946 17.25 74.4484 16.8549 75.1517 16.1517C75.8549 15.4484 76.25 14.4946 76.25 13.5C76.25 12.5054 75.8549 11.5516 75.1517 10.8483C74.4484 10.1451 73.4946 9.75 72.5 9.75Z" fill="white"/>
</svg>
