<?xml version="1.0" standalone="no"?>
<!DOCTYPE svg PUBLIC "-//W3C//DTD SVG 20010904//EN"
 "http://www.w3.org/TR/2001/REC-SVG-20010904/DTD/svg10.dtd">
<svg version="1.0" xmlns="http://www.w3.org/2000/svg"
 width="464.000000pt" height="107.000000pt" viewBox="0 0 464.000000 107.000000"
 preserveAspectRatio="xMidYMid meet">

<g transform="translate(0.000000,107.000000) scale(0.100000,-0.100000)"
fill="#000000" stroke="none">
<path d="M0 535 l0 -535 2320 0 2320 0 0 535 0 535 -2320 0 -2320 0 0 -535z
m768 410 c61 -51 66 -129 12 -183 -82 -82 -219 -17 -207 98 11 95 124 145 195
85z m-482 -16 c27 -17 129 -110 226 -206 l177 -174 43 3 c38 3 45 7 64 42 12
21 25 56 28 77 l6 39 66 0 67 0 -7 -52 c-8 -60 -47 -152 -79 -186 -33 -35 -91
-62 -135 -62 -76 0 -136 54 -309 275 -144 185 -200 235 -265 235 -30 0 -47 -8
-78 -36 -22 -20 -43 -34 -46 -31 -11 10 17 48 58 77 57 42 116 41 184 -1z
m1030 -174 c30 -12 34 -17 25 -34 -9 -17 -15 -18 -39 -9 -67 25 -119 -26 -109
-106 7 -50 38 -78 81 -74 25 2 32 8 34 31 2 19 -1 27 -12 27 -10 0 -16 9 -16
25 0 23 4 25 40 25 l40 0 0 -65 c0 -75 -12 -87 -90 -88 -87 -1 -137 59 -127
156 5 55 42 102 92 116 42 13 42 13 81 -4z m952 -12 c55 -34 67 -150 22 -213
-46 -64 -150 -57 -186 11 -23 45 -22 130 1 166 39 60 102 74 163 36z m2094 11
c3 -2 4 -13 1 -23 -4 -16 -11 -18 -44 -14 -31 5 -40 2 -46 -12 -4 -13 2 -24
21 -39 65 -49 86 -75 86 -103 0 -34 -31 -67 -71 -77 -26 -6 -89 10 -89 22 1
20 20 29 60 28 39 -1 45 2 48 21 3 18 -7 30 -48 55 -53 33 -67 59 -56 104 11
41 93 64 138 38z m-2807 -19 c31 -30 32 -66 1 -101 l-23 -28 33 -52 c19 -29
34 -56 34 -59 0 -3 -11 -5 -25 -5 -19 0 -32 13 -60 55 -19 30 -42 55 -50 55
-12 0 -15 -13 -15 -55 0 -52 -1 -55 -25 -55 l-25 0 0 135 0 135 65 0 c57 0 69
-3 90 -25z m125 -78 c0 -109 7 -127 46 -127 44 0 54 24 54 131 0 99 0 99 25
99 25 0 25 0 25 -100 0 -54 -5 -110 -11 -123 -25 -54 -119 -69 -165 -27 -23
22 -24 29 -24 137 l0 113 25 0 25 0 0 -103z m340 88 c74 -38 32 -155 -57 -155
-33 0 -33 0 -33 -50 0 -47 -2 -50 -25 -50 l-25 0 0 135 0 135 55 0 c31 0 69
-7 85 -15z m568 -73 c18 -48 42 -108 53 -134 l19 -48 -29 0 c-22 0 -30 6 -35
25 -6 22 -11 25 -55 25 -44 0 -49 -3 -55 -25 -5 -19 -13 -25 -35 -25 l-29 0
44 113 c60 153 62 157 76 157 7 0 28 -40 46 -88z m242 68 c24 -24 26 -63 5
-80 -14 -12 -13 -16 6 -36 32 -34 29 -81 -5 -111 -22 -19 -38 -23 -92 -23
l-64 0 0 135 0 135 65 0 c52 0 69 -4 85 -20z m220 0 c24 -24 26 -63 4 -81 -14
-11 -14 -14 -2 -23 19 -14 38 -50 38 -71 0 -9 -13 -30 -29 -46 -26 -26 -36
-29 -90 -29 l-61 0 0 135 0 135 60 0 c47 0 64 -4 80 -20z m228 0 c29 -27 29
-83 2 -110 -25 -25 -25 -23 8 -73 46 -68 46 -67 15 -67 -24 0 -34 9 -62 55
-18 30 -40 55 -47 55 -10 0 -14 -15 -14 -55 0 -52 -1 -55 -25 -55 l-25 0 0
135 0 135 63 0 c50 0 68 -4 85 -20z m122 -76 c0 -109 9 -134 48 -134 46 0 52
15 52 127 l0 103 25 0 25 0 0 -108 c0 -124 -9 -146 -70 -162 -51 -14 -106 7
-120 45 -6 15 -10 71 -10 126 0 99 0 99 25 99 25 0 25 0 25 -96z m370 89 c0
-5 -25 -55 -55 -112 -30 -57 -55 -106 -55 -108 0 -1 25 -3 55 -3 48 0 55 -2
55 -20 0 -19 -7 -20 -90 -20 -49 0 -90 3 -90 7 0 3 25 53 55 110 30 57 55 106
55 109 0 2 -25 4 -55 4 -48 0 -55 2 -55 20 0 19 7 20 90 20 50 0 90 -3 90 -7z
m210 1 c0 -3 -25 -52 -55 -109 -30 -56 -55 -105 -55 -109 0 -3 25 -6 55 -6 48
0 55 -2 55 -20 0 -19 -7 -20 -90 -20 -49 0 -90 3 -90 7 0 3 25 55 55 115 l56
108 -56 0 c-48 0 -55 2 -55 20 0 19 7 20 90 20 50 0 90 -3 90 -6z m210 -14 c0
-18 -7 -20 -60 -20 -60 0 -60 0 -60 -29 0 -28 3 -30 43 -33 34 -2 42 -7 42
-23 0 -16 -8 -21 -42 -23 -43 -3 -43 -3 -43 -43 l0 -39 60 0 c53 0 60 -2 60
-20 0 -18 -7 -20 -85 -20 l-85 0 0 135 0 135 85 0 c78 0 85 -2 85 -20z m400 0
c0 -18 -7 -20 -60 -20 -60 0 -60 0 -60 -29 0 -28 3 -30 43 -33 34 -2 42 -7 42
-23 0 -16 -8 -21 -42 -23 -43 -3 -43 -3 -43 -43 l0 -39 60 0 c53 0 60 -2 60
-20 0 -18 -7 -20 -85 -20 l-85 0 0 135 0 135 85 0 c78 0 85 -2 85 -20z m-4197
-130 c56 -38 85 -69 214 -235 119 -154 199 -231 249 -241 41 -8 87 9 113 42
18 23 41 32 41 16 0 -11 -71 -77 -97 -91 -12 -6 -37 -11 -55 -11 -67 1 -115
35 -306 223 -118 116 -198 186 -216 191 -52 13 -98 -38 -112 -123 l-7 -41 -68
0 -68 0 5 33 c24 133 70 212 149 255 40 22 108 14 158 -18z m1567 -202 c0 -7
-8 -51 -17 -97 -12 -63 -14 -86 -5 -89 20 -6 14 -22 -8 -22 -11 0 -23 7 -27
16 -5 14 23 179 34 197 7 12 23 8 23 -5z m390 4 c0 -5 -9 -17 -20 -27 -20 -18
-25 -11 -14 19 6 17 34 23 34 8z m600 0 c0 -5 -9 -17 -20 -27 -20 -18 -25 -11
-14 19 6 17 34 23 34 8z m187 -19 c-3 -16 -11 -65 -18 -109 l-12 -81 -53 -2
c-57 -1 -74 13 -74 58 0 54 58 109 100 96 15 -5 21 0 26 22 9 36 13 43 26 43
6 0 8 -11 5 -27z m-1799 5 c-3 -7 -20 -15 -39 -18 l-34 -5 -14 -87 c-12 -70
-18 -88 -32 -88 -15 0 -16 6 -3 73 20 103 19 107 -16 107 -20 0 -30 5 -30 15
0 12 16 15 86 15 64 0 85 -3 82 -12z m1358 -48 c4 -33 10 -62 13 -65 4 -2 22
25 39 61 18 35 36 64 42 64 6 0 10 -41 10 -105 0 -87 -3 -105 -15 -105 -12 0
-15 14 -16 63 l0 62 -32 -62 c-17 -35 -34 -63 -38 -63 -4 0 -11 25 -14 55 -4
30 -10 55 -14 55 -4 0 -15 -25 -26 -55 -10 -30 -24 -55 -32 -55 -16 0 -18 -8
16 91 50 145 56 151 67 59z m514 47 c0 -8 -3 -17 -7 -20 -9 -9 -34 13 -27 24
8 14 34 11 34 -4z m-1799 -47 c23 -13 25 -53 3 -71 -9 -7 -34 -14 -55 -14 -44
0 -43 1 -28 -27 9 -16 17 -19 41 -14 21 4 28 2 26 -7 -6 -16 -66 -21 -83 -7
-48 40 -4 146 63 149 7 1 22 -4 33 -9z m143 4 c25 -10 19 -24 -11 -24 -35 0
-63 -27 -63 -60 0 -34 22 -54 50 -45 14 5 20 2 20 -9 0 -12 -10 -16 -38 -16
-48 0 -62 14 -62 63 0 29 7 46 29 68 30 29 46 34 75 23z m98 -3 c25 13 55 3
63 -22 10 -30 -14 -129 -31 -129 -11 0 -13 9 -7 43 11 71 10 82 -14 85 -26 4
-39 -16 -48 -80 -5 -31 -12 -48 -21 -48 -17 0 -17 1 -4 76 15 82 18 90 32 76
8 -8 17 -8 30 -1z m209 -12 c44 -44 -2 -139 -68 -139 -67 0 -80 85 -21 135 36
31 61 32 89 4z m237 5 c29 -20 30 -81 1 -118 -24 -30 -78 -36 -103 -10 -32 31
-12 104 35 130 31 17 40 17 67 -2z m164 -15 c-6 -54 -13 -69 -39 -82 l-26 -14
27 -7 c19 -5 26 -13 26 -31 0 -32 -39 -57 -81 -53 -50 5 -48 26 2 30 23 2 44
9 47 15 3 12 -3 16 -47 29 -9 3 -10 8 -3 17 8 9 6 16 -9 25 -26 17 -24 48 6
78 20 20 32 24 62 21 33 -4 38 -7 35 -28z m245 17 c2 -2 -2 -27 -8 -55 -6 -29
-9 -61 -6 -71 4 -16 -2 -18 -46 -18 -28 -1 -57 4 -64 10 -30 25 -3 120 40 138
19 8 75 6 84 -4z m447 -2 c9 -8 16 -21 16 -28 0 -23 -40 -50 -75 -50 -20 0
-35 -5 -35 -12 0 -19 28 -37 50 -31 13 3 20 0 20 -9 0 -10 -12 -14 -40 -14
-44 0 -60 18 -60 67 0 67 83 119 124 77z m394 -1 c2 -9 -7 -13 -27 -13 -33 0
-61 -30 -61 -66 0 -28 24 -48 50 -41 13 3 20 0 20 -9 0 -20 -59 -18 -82 3 -48
44 8 147 76 140 11 -1 21 -8 24 -14z m150 3 c2 -3 -1 -29 -7 -58 -7 -30 -9
-61 -6 -70 5 -12 -4 -15 -47 -16 -29 0 -58 4 -65 10 -30 25 -4 114 41 137 19
9 73 7 84 -3z m-1162 -48 c-11 -80 -17 -98 -33 -98 -11 0 -13 7 -9 28 17 84
18 102 7 102 -7 0 -9 5 -6 10 3 6 15 10 27 10 19 0 20 -4 14 -52z m860 0 c-11
-80 -17 -98 -33 -98 -11 0 -13 7 -9 28 17 84 18 102 7 102 -7 0 -9 5 -6 10 3
6 15 10 27 10 19 0 20 -4 14 -52z"/>
<path d="M2156 698 c-10 -13 -16 -43 -16 -73 0 -62 20 -95 59 -95 43 0 65 32
65 94 1 39 -4 60 -18 75 -25 28 -70 27 -90 -1z"/>
<path d="M1450 679 c0 -41 0 -41 32 -35 29 6 47 20 48 38 0 15 -33 38 -56 38
-22 0 -24 -4 -24 -41z"/>
<path d="M1930 674 l0 -46 32 6 c51 10 63 44 26 70 -42 30 -58 21 -58 -30z"/>
<path d="M2526 636 c-3 -13 -9 -31 -12 -40 -5 -13 1 -16 26 -16 25 0 31 3 26
16 -3 9 -9 27 -12 40 -8 31 -20 31 -28 0z"/>
<path d="M2730 690 c0 -29 2 -31 33 -28 27 2 32 7 32 28 0 21 -5 26 -32 28
-31 3 -33 1 -33 -28z"/>
<path d="M2730 575 c0 -41 2 -45 24 -45 43 0 56 10 56 45 0 35 -13 45 -56 45
-22 0 -24 -4 -24 -45z"/>
<path d="M2950 690 c0 -29 2 -31 33 -28 27 2 32 7 32 28 0 21 -5 26 -32 28
-31 3 -33 1 -33 -28z"/>
<path d="M2957 613 c-4 -3 -7 -24 -7 -45 0 -35 2 -38 28 -38 38 0 55 14 55 45
0 15 -7 31 -14 36 -17 10 -53 12 -62 2z"/>
<path d="M3180 680 c0 -43 13 -50 51 -30 38 21 13 70 -35 70 -12 0 -16 -10
-16 -40z"/>
<path d="M3030 315 c-19 -23 -18 -76 3 -89 15 -9 22 -7 38 13 10 13 19 38 19
57 0 29 -3 34 -24 34 -13 0 -29 -7 -36 -15z"/>
<path d="M1340 309 c-11 -19 -9 -20 22 -17 22 2 34 9 36 21 5 26 -44 23 -58
-4z"/>
<path d="M1785 320 c-32 -51 -18 -109 23 -96 23 8 46 64 36 89 -7 19 -49 23
-59 7z"/>
<path d="M2033 318 c-30 -37 -26 -98 6 -98 49 0 72 101 25 108 -11 2 -25 -3
-31 -10z"/>
<path d="M2182 318 c-30 -30 1 -74 33 -48 22 18 19 60 -3 60 -10 0 -23 -5 -30
-12z"/>
<path d="M2416 308 c-21 -29 -21 -77 0 -85 22 -8 41 15 52 65 9 40 9 42 -13
42 -13 0 -31 -10 -39 -22z"/>
<path d="M2882 318 c-20 -20 -13 -29 20 -26 40 4 54 38 16 38 -13 0 -29 -5
-36 -12z"/>
<path d="M3410 315 c-7 -9 -13 -32 -14 -52 -2 -72 52 -45 69 35 6 29 4 32 -18
32 -13 0 -30 -7 -37 -15z"/>
</g>
</svg>
