<?xml version="1.0" standalone="no"?>
<!DOCTYPE svg PUBLIC "-//W3C//DTD SVG 20010904//EN"
 "http://www.w3.org/TR/2001/REC-SVG-20010904/DTD/svg10.dtd">
<svg version="1.0" xmlns="http://www.w3.org/2000/svg"
 width="110.000000pt" height="107.000000pt" viewBox="0 0 110.000000 107.000000"
 preserveAspectRatio="xMidYMid meet">

<g transform="translate(0.000000,107.000000) scale(0.100000,-0.100000)"
fill="#000000" stroke="none">
<path d="M0 535 l0 -535 550 0 550 0 0 535 0 535 -550 0 -550 0 0 -535z m768
410 c61 -51 66 -129 12 -183 -82 -82 -219 -17 -207 98 11 95 124 145 195 85z
m-482 -16 c27 -17 129 -110 226 -206 l177 -174 43 3 c38 3 45 7 64 42 12 21
25 56 28 77 l6 39 66 0 67 0 -7 -52 c-8 -60 -47 -152 -79 -186 -33 -35 -91
-62 -135 -62 -76 0 -136 54 -309 275 -144 185 -200 235 -265 235 -30 0 -47 -8
-78 -36 -22 -20 -43 -34 -46 -31 -11 10 17 48 58 77 57 42 116 41 184 -1z
m107 -319 c56 -38 85 -69 214 -235 119 -154 199 -231 249 -241 41 -8 87 9 113
42 18 23 41 32 41 16 0 -11 -71 -77 -97 -91 -12 -6 -37 -11 -55 -11 -67 1
-115 35 -306 223 -118 116 -198 186 -216 191 -52 13 -98 -38 -112 -123 l-7
-41 -68 0 -68 0 5 33 c24 133 70 212 149 255 40 22 108 14 158 -18z"/>
</g>
</svg>
